<?xml version="1.0" standalone="no"?>
<!DOCTYPE svg PUBLIC "-//W3C//DTD SVG 20010904//EN"
 "http://www.w3.org/TR/2001/REC-SVG-20010904/DTD/svg10.dtd">
<svg version="1.0" xmlns="http://www.w3.org/2000/svg"
 width="1024.000000pt" height="1024.000000pt" viewBox="0 0 1024.000000 1024.000000"
 preserveAspectRatio="xMidYMid meet">

<g transform="translate(0.000000,1024.000000) scale(0.100000,-0.100000)"
fill="#000000" stroke="none">
<path d="M5555 7410 c-191 -22 -480 -53 -1055 -115 -234 -25 -428 -49 -431
-53 -4 -4 -37 -407 -73 -897 -71 -947 -112 -1461 -121 -1510 -4 -23 -18 -38
-58 -62 -64 -39 -228 -165 -322 -248 l-70 -61 -75 23 c-171 55 -345 52 -524
-8 -118 -39 -205 -91 -300 -180 -241 -225 -325 -552 -221 -859 67 -198 237
-383 433 -472 373 -169 828 -38 1056 306 44 65 121 234 159 348 7 19 296 167
567 291 276 125 889 378 998 411 24 8 28 26 12 56 -9 17 -22 13 -187 -50 -433
-164 -751 -301 -1140 -490 -123 -60 -223 -105 -223 -102 1 4 7 34 15 67 19 78
51 264 66 389 l12 99 161 77 c161 78 498 222 696 298 58 23 204 79 325 125
706 272 1039 441 1306 663 302 253 519 584 595 909 29 121 26 400 -4 510 -22
77 -67 185 -98 233 -14 21 -16 21 -39 6 l-25 -16 25 -47 26 -47 -51 -122 c-58
-143 -88 -203 -143 -292 -190 -305 -513 -611 -834 -791 -214 -120 -385 -195
-822 -361 -229 -86 -454 -176 -591 -235 -114 -50 -417 -198 -438 -215 -30 -25
-33 -75 44 867 13 165 27 326 30 359 l6 58 57 -7 c31 -3 73 -11 94 -16 l37
-10 0 -235 c0 -190 3 -241 15 -264 31 -59 23 -58 591 -61 369 -1 526 1 541 9
11 7 33 25 47 43 25 29 26 36 26 151 l0 121 43 -7 c23 -4 52 -9 65 -13 l22 -5
0 726 0 726 -32 -1 c-18 -1 -105 -9 -193 -19z m1534 -532 c52 -168 38 -435
-35 -640 -87 -244 -280 -514 -506 -706 -169 -143 -497 -337 -738 -437 -217
-90 -352 -143 -565 -224 -497 -190 -905 -360 -1108 -463 l-59 -29 6 28 c3 15
12 123 21 238 9 116 20 219 25 231 5 14 73 53 211 121 236 117 493 225 909
384 619 235 902 387 1195 640 165 142 289 283 410 464 75 114 165 287 191 369
10 31 21 56 25 56 4 0 12 -15 18 -32z m-2401 -135 c-2 -95 -7 -138 -15 -140
-9 -3 -13 31 -15 127 -3 144 -3 150 18 150 12 0 14 -23 12 -137z m742 10 c0
-119 -11 -181 -24 -143 -3 8 -6 72 -8 143 -3 115 -1 127 15 127 15 0 17 -13
17 -127z m-810 -14 c0 -46 -5 -67 -20 -86 -11 -14 -20 -39 -20 -55 0 -41 48
-88 90 -88 73 0 116 95 69 153 -16 21 -19 38 -17 79 l3 53 290 2 c160 1 302
-1 316 -4 25 -5 27 -9 27 -56 -1 -30 -7 -59 -15 -68 -21 -24 -28 -86 -13 -113
27 -52 97 -60 141 -17 37 37 38 79 3 120 -21 25 -25 38 -22 83 3 51 4 53 33
56 50 6 104 -16 125 -51 19 -31 20 -54 20 -495 0 -391 -2 -467 -15 -492 -32
-62 -9 -60 -578 -60 l-519 0 -34 34 -34 34 0 164 c0 89 -3 300 -6 468 l-6 305
24 35 c25 37 71 58 126 59 l32 1 0 -61z m-781 -2254 c-15 -126 -28 -239 -29
-250 -1 -51 -16 -46 -101 38 -46 45 -112 101 -147 123 l-63 41 101 84 c100 83
261 202 265 197 2 -2 -10 -106 -26 -233z"/>
<path d="M4980 6214 c-85 -7 -160 -16 -168 -19 -7 -3 -12 -15 -10 -27 3 -22 7
-23 83 -21 44 1 143 6 220 12 143 11 174 22 162 55 -8 20 -64 19 -287 0z"/>
<path d="M5220 6096 c-3 -2 -86 -9 -185 -15 -223 -15 -225 -15 -225 -45 0 -13
6 -26 13 -28 15 -6 359 20 407 30 29 6 35 11 35 32 0 18 -6 26 -20 28 -12 2
-23 1 -25 -2z"/>
<path d="M6030 6808 c0 -6 12 -49 27 -94 l26 -81 62 4 c115 10 184 -49 194
-166 l6 -66 15 35 c8 19 15 62 15 95 0 116 -91 224 -224 265 -71 23 -121 26
-121 8z"/>
<path d="M6986 4302 c-3 -5 2 -48 10 -97 14 -79 14 -89 0 -97 -8 -5 -20 -24
-25 -44 -27 -98 79 -166 150 -95 49 50 35 121 -31 154 -21 10 -26 24 -37 87
-7 40 -15 80 -17 87 -6 14 -42 18 -50 5z"/>
<path d="M5972 4118 c-7 -9 -5 -38 8 -95 17 -79 17 -82 -1 -110 -47 -70 -8
-153 71 -153 56 0 90 34 90 90 0 43 -33 90 -64 90 -8 0 -18 4 -21 10 -4 7 -35
162 -35 178 0 8 -39 0 -48 -10z"/>
<path d="M6550 3561 c-104 -55 -133 -192 -58 -277 42 -48 77 -64 140 -64 118
0 206 107 179 217 -16 61 -36 89 -86 118 -52 31 -125 33 -175 6z"/>
</g>
</svg>
